<?xml version="1.0" encoding="utf-8"?>
<!-- Generator: Adobe Illustrator 24.2.1, SVG Export Plug-In . SVG Version: 6.00 Build 0)  -->
<svg version="1.1" id="Ebene_1" xmlns="http://www.w3.org/2000/svg" xmlns:xlink="http://www.w3.org/1999/xlink" x="0px" y="0px"
	 viewBox="0 0 517.12 380.81" style="enable-background:new 0 0 517.12 380.81;" xml:space="preserve">
<style type="text/css">
	.st0{fill:#FFCD00;}
	.st1{fill:#FFE600;}
	.st2{fill:#4A8B2C;}
</style>
<path class="st0" d="M114.03,182.66c2.71-5.37,5.67-10.6,8.95-15.61l-78.25-45.18c-3.19,5.1-6.35,10.18-9.17,15.49L114.03,182.66z"
	/>
<path class="st1" d="M409.56,158.64l-1.77,1.02c0.23,0.31,0.45,0.62,0.7,0.96C409.25,160.23,409.59,159.56,409.56,158.64z"/>
<path class="st0" d="M347.87,119.96c-5.01-3.28-10.23-6.23-15.6-8.96l45.3-78.47c5.33,2.84,10.4,5.99,15.48,9.17L347.87,119.96z"/>
<path class="st0" d="M395,167.05c3.25,5.01,6.21,10.23,8.94,15.61l78.45-45.3c-2.83-5.31-5.97-10.39-9.16-15.49L395,167.05z"/>
<path class="st0" d="M140.39,32.58c-4.05,2.16-7.97,4.51-11.85,6.91c0,0-2.76,1.64-3.64,2.24l45.19,78.25
	c1.15-0.76,6.47-3.89,7.64-4.61c0,0,6.59-3.64,7.95-4.33L140.39,32.58z"/>
<path class="st0" d="M268.01,93.81c-5.98-0.33-11.86-0.27-17.86,0.07V3.27c6.03-0.22,11.87-0.03,17.86,0.17L268.01,93.81z"/>
<polygon class="st2" points="80.35,375.77 100.5,375.77 64.67,244.64 39.35,244.64 3.55,375.77 23.67,375.77 51.95,263.02 "/>
<g id="ADES">
	<g>
		<path class="st2" d="M212.38,261.57C212.38,261.57,212.38,261.56,212.38,261.57c-0.03-0.03-1.25-1.08-1.53-1.31
			c-0.57-0.47-2.72-2.19-4.46-3.43c-1.74-1.25-4.82-3.1-6.26-3.89c-1.44-0.8-5.39-2.62-6.16-2.9c-1.77-0.66-6.73-2.27-6.74-2.27
			c-6.64-1.99-13.75-3.11-21.24-3.11h-12.37v131.13h14.89c7.75,0,14.86-1.03,21.74-2.84c0.03,0,1.43-0.36,1.43-0.37
			c1.36-0.38,3.14-1,3.64-1.18c0.72-0.26,1.78-0.66,3.58-1.41c1.55-0.65,6.33-3.06,6.33-3.06c0.34-0.19,1.22-0.71,1.29-0.75
			c0.73-0.4,2.58-1.65,2.58-1.65c15.82-10.52,25.56-28.11,25.56-51.61C234.66,291.75,226.19,273.76,212.38,261.57z M173.54,357.59
			v-94.78c7.92,0.37,14.92,3.12,20.81,7.42c0.05,0.04,2.55,2,2.55,2c0.4,0.34,3.6,3.36,5.72,5.88c0.52,0.64,1.73,2.23,1.73,2.23
			c0.13,0.17,1.86,2.72,2.07,3.05c0.05,0.08,1.25,2.12,1.3,2.21c0.4,0.73,1.17,2.2,1.31,2.49c0.01,0.02,0.8,1.71,0.99,2.14
			c0.04,0.1,0.58,1.38,0.8,1.91c2.56,6.49,3.94,13.49,3.94,20.37C214.76,337.29,199.85,358.17,173.54,357.59z"/>
		<polygon class="st2" points="313.18,316.39 364.23,316.39 364.23,298.23 313.18,298.23 313.18,262.82 371.78,262.82 
			371.78,244.64 293.24,244.64 293.24,375.77 374.11,375.77 374.11,357.59 313.18,357.59 		"/>
		<path class="st2" d="M511.22,340.95c0-1.64-0.12-3.19-0.27-4.7c0,0,0,0,0,0c0-0.02-0.09-0.7-0.12-0.87l0,0
			c-2.38-18.27-16.46-26.72-32.68-34.46l-11.59-5.42c-0.1-0.04-2.35-1.16-3.38-1.7c-6.26-3.4-11.71-8.24-11.71-16.29
			c0-12.37,9.68-16.43,20.1-16.43c10.45,0,19.16,5.6,18.39,16.63h19.9v-2.53c0-6.06-1.89-11.44-5.02-15.99l-1.31-1.72
			c-7.31-9.19-19.83-14.57-31.56-14.57c-21.66,0-40.42,13.73-40.42,36.35c0,5.54,1.25,10.16,3.33,14.13l-0.01,0
			c0,0,0.74,1.27,0.8,1.37c1.02,1.66,2.49,3.64,3.38,4.67c0.34,0.39,2.19,2.22,2.71,2.7c0.35,0.35,0.83,0.74,0.83,0.74
			c5.4,4.66,12.18,8.15,18.93,11.39c14.89,6.96,29.8,12.57,29.8,26.9c0,12.75-10.47,18.17-21.69,18.17
			c-12.35,0-21.06-7.55-21.25-19.92h-20.02c0,0,0.12,2.33,0.1,4.06c0.13,5.08,0.94,8.62,2.47,12.02l-0.01,0.01
			c0,0,0.7,1.86,1.72,3.54c1.14,1.86,1.96,2.72,2.27,3.07c0.01,0.01,0.04,0.02,0.05,0.03c7.85,9.94,21.63,15.37,34.67,15.37
			c11.66,0,22.77-3.94,30.58-11.14h0c0.04-0.04,0.08-0.07,0.11-0.09l0,0c0.01-0.01,0.01-0.01,0.02-0.02c0,0,0,0,0,0l0,0
			C506.99,360.06,511.22,351.52,511.22,340.95z"/>
	</g>
</g>
</svg>
